:SAMPLES-PER-SECOND 30
:FRAME-RANGE 1-1700
:FULLY-SPECIFIED
:DEGREES
54
root  -36.3403 39.198 48.3848 -171.974 -5.7608 179.935
RightUpLeg  -21.6315 -9.56841 -2.46116
RightLeg  15.6587 -5.67878 -0.169957
RightFoot  -1.71228 -0.150458 1.64709
RightToes  6.35937e-011 1.2921e-014 -6.02303e-014
Spine  4.86227 -3.13136 2.65739
Spine1  3.14316 -3.64367 2.39832
HEad  -3.31246 -6.6107 -4.48231
LeftShoulder1  2.48141 -5.9738 -20.5831
LeftArm  -4.75872 -2.01933 -52.2458
LeftForeArm  41.1255 0.159057 -11.5544
LeftHand  -0.0252756 5.12486 -0.60776
RightShoulder  1.91615 2.87813 24.9262
RightArm  -22.1895 9.67713 47.987
RightForeArm  72.5777 -5.43009 4.88544
RightHand  -0.0147029 -5.38204 -16.5839
LeftUpLeg  -7.79648 -6.80232 9.96793
LeftLeg  26.0629 6.39067 3.72706
LeftFoot  -13.6272 0.012416 -3.47048
LeftToes  -1.9349e-011 5.45182e-011 1.33515e-010
55
root  -36.7333 39.1049 48.873 -171.955 -6.67053 179.928
RightUpLeg  -22.5411 -10.4013 -2.8472
RightLeg  16.0757 -5.66561 -0.643394
RightFoot  -1.05895 -0.219673 2.36017
RightToes  6.35937e-011 1.2921e-014 -6.02303e-014
Spine  5.09526 -3.20497 2.36062
Spine1  2.99264 -3.67515 2.2115
HEad  -3.86386 -7.5593 -3.44425
LeftShoulder1  2.49868 -6.08729 -20.4341
LeftArm  -4.55153 -3.12601 -52.5503
LeftForeArm  40.833 -0.821326 -11.5783
LeftHand  -0.0198443 4.77047 -0.491872
RightShoulder  1.92149 2.92119 24.7911
RightArm  -22.39 9.60979 48.2115
RightForeArm  72.5439 -5.40978 4.75385
RightHand  -0.0379318 -5.21687 -16.5462
LeftUpLeg  -7.3419 -7.78322 11.1204
LeftLeg  25.3948 5.70013 3.27806
LeftFoot  -14.3123 0.0104695 -2.90404
LeftToes  -1.9349e-011 5.45182e-011 1.33515e-010
56
root  -37.1776 38.9802 49.416 -172.012 -7.61671 179.912
RightUpLeg  -23.475 -10.901 -3.44458
RightLeg  16.6307 -5.86785 -1.23886
RightFoot  -0.348818 -0.330941 3.4126
RightToes  6.35937e-011 1.2921e-014 -6.02303e-014
Spine  5.46513 -3.21127 1.97538
Spine1  2.81635 -3.64784 2.06985
HEad  -4.47912 -8.72741 -2.28861
LeftShoulder1  2.54491 -6.28204 -20.3719
LeftArm  -4.05861 -4.1674 -52.7722
LeftForeArm  40.551 -1.86524 -11.6543
LeftHand  -0.0183127 4.65525 -0.641159
RightShoulder  1.92674 2.96825 24.6375
RightArm  -22.485 9.48748 48.3331
RightForeArm  72.5162 -5.40282 4.70495
RightHand  -0.0337664 -5.24661 -16.58
LeftUpLeg  -7.21886 -9.00742 12.1292
LeftLeg  24.8994 5.22406 2.97645
LeftFoot  -15.3174 0.0207943 -2.0464
LeftToes  -1.9349e-011 5.45182e-011 1.33515e-010
57
root  -37.6829 38.8297 49.9941 -172.208 -8.55969 -179.923
RightUpLeg  -24.2189 -11.2396 -4.11851
RightLeg  17.0682 -6.37223 -1.68475
RightFoot  0.467782 -0.42745 4.16124
RightToes  6.35937e-011 1.2921e-014 -6.02303e-014
Spine  5.75044 -3.14708 1.77094
Spine1  2.89398 -3.56964 1.99468
HEad  -4.81213 -9.98475 -1.20759
LeftShoulder1  2.58561 -6.45613 -20.3116
LeftArm  -3.25514 -5.27232 -53.0497
LeftForeArm  40.2217 -2.68092 -11.7721
LeftHand  -0.0184519 4.68687 -0.333413
RightShoulder  1.9182 2.94895 24.5931
RightArm  -22.6483 9.30922 48.2565
RightForeArm  72.5514 -5.38613 4.61227
RightHand  -0.0342507 -5.24323 -16.6042
LeftUpLeg  -7.24788 -10.5916 13.0789
LeftLeg  24.2614 4.2869 2.44397
LeftFoot  -15.7384 0.0300109 -1.67626
LeftToes  -1.9349e-011 5.45182e-011 1.33515e-010
58
root  -38.2722 38.65 50.6171 -172.41 -9.34694 -179.479
RightUpLeg  -24.8983 -11.2371 -4.8266
RightLeg  17.2431 -7.00502 -1.96473
RightFoot  1.55781 -0.56166 5.05864
RightToes  6.35937e-011 1.2921e-014 -6.02303e-014
Spine  5.9515 -3.00003 1.9519
Spine1  2.96853 -3.3853 1.84531
HEad  -4.90239 -11.2433 -0.118702
LeftShoulder1  2.60615 -6.55846 -20.2403
LeftArm  -2.71947 -6.33644 -53.4323
LeftForeArm  40.3935 -3.04161 -11.8339
LeftHand  -0.0168573 4.57487 -0.31061
RightShoulder  1.92666 2.99462 24.5013
RightArm  -22.7512 8.90263 48.0401
RightForeArm  72.3121 -5.3919 4.58916
RightHand  -0.0373326 -5.22176 -16.709
LeftUpLeg  -7.64257 -12.4403 13.9241
LeftLeg  23.7885 3.01848 1.78936
LeftFoot  -14.7066 0.0637056 -0.834096
LeftToes  -1.9349e-011 5.45182e-011 1.33515e-010
59
root  -38.9705 38.4113 51.3286 -172.63 -10.2033 -178.83
RightUpLeg  -25.5985 -11.3497 -5.61878
RightLeg  17.2876 -7.87994 -2.09017
RightFoot  2.882 -0.757285 6.22143
RightToes  6.35937e-011 1.2921e-014 -6.02303e-014
Spine  6.34843 -2.98591 2.43093
Spine1  2.82173 -3.3478 1.81908
HEad  -4.93194 -12.2904 1.10704
LeftShoulder1  2.57632 -6.50086 -20.0804
LeftArm  -2.57264 -7.2018 -53.9445
LeftForeArm  40.56 -3.09261 -11.8377
LeftHand  -0.0167168 4.56916 -0.270191
RightShoulder  1.9423 3.03838 24.5402
RightArm  -22.6493 8.62765 47.6821
RightForeArm  72.0954 -5.4165 4.68576
RightHand  -0.0403492 -5.20163 -16.9347
LeftUpLeg  -8.51775 -15.0419 14.8321
LeftLeg  23.3868 1.04555 0.8275
LeftFoot  -13.3185 -0.081411 -9.3172
LeftToes  -1.9349e-011 5.45182e-011 1.33515e-010
60
root  -39.7237 38.182 52.0583 -173.022 -10.4295 -178.153
RightUpLeg  -25.8673 -10.4987 -6.63749
RightLeg  16.6654 -8.96689 -2.21408
RightFoot  4.43697 -0.964514 7.17099
RightToes  6.35937e-011 1.2921e-014 -6.02303e-014
Spine  6.64275 -2.78089 2.60908
Spine1  2.96928 -3.13187 1.75949
HEad  -5.06416 -13.2428 2.24988
LeftShoulder1  2.55393 -6.49355 -19.856
LeftArm  -2.79577 -7.78209 -54.585
LeftForeArm  40.9965 -2.91157 -11.7885
LeftHand  -0.018238 4.69657 -0.134704
RightShoulder  1.95267 3.0794 24.5051
RightArm  -22.3578 8.58251 47.3516
RightForeArm  72.2244 -5.44373 4.88235
RightHand  -0.0417375 -5.19281 -17.0858
LeftUpLeg  -9.36759 -15.2749 15.0497
LeftLeg  23.8614 -0.520292 0.0801342
LeftFoot  -15.8607 -0.471552 -14.2866
LeftToes  -1.9349e-011 5.45182e-011 1.33515e-010
61
root  -40.4752 38.0227 52.7949 -173.502 -10.1888 -178.032
RightUpLeg  -25.6299 -9.64939 -8.09443
RightLeg  15.3806 -9.35808 -2.16825
RightFoot  4.78906 -1.1026 8.00079
RightToes  6.35937e-011 1.2921e-014 -6.02303e-014
Spine  7.1141 -2.53103 1.71081
Spine1  3.10624 -2.89848 1.62124
HEad  -5.04759 -13.9109 3.74109
LeftShoulder1  2.51612 -6.44459 -19.5797
LeftArm  -2.76069 -8.06406 -54.9295
LeftForeArm  41.0504 -2.62266 -11.8342
LeftHand  -0.0176645 4.64444 -0.215226
RightShoulder  1.9701 3.05608 24.9115
RightArm  -21.8148 8.83493 46.895
RightForeArm  72.346 -5.49636 5.23213
RightHand  -0.0316334 -5.26236 -17.0651
LeftUpLeg  -10.1713 -12.546 14.0296
LeftLeg  25.0708 -2.31246 -0.846041
LeftFoot  -18.1541 -0.633393 -12.4235
LeftToes  -1.9349e-011 5.45182e-011 1.33515e-010
62
root  -41.2231 37.9205 53.5406 -173.864 -10.0009 -178.111
RightUpLeg  -25.0319 -9.48759 -9.51544
RightLeg  13.5912 -9.63513 -1.92348
RightFoot  2.58977 -0.974159 8.10563
RightToes  6.35937e-011 1.2921e-014 -6.02303e-014
Spine  7.35802 -2.39244 0.532739
Spine1  3.33653 -2.79068 1.49162
HEad  -5.12118 -14.5368 5.0028
LeftShoulder1  2.47452 -6.38138 -19.2987
LeftArm  -2.54133 -8.17304 -54.9854
LeftForeArm  41.037 -2.03161 -11.9875
LeftHand  -0.018962 4.77697 0.0406569
RightShoulder  2.01794 3.1476 25.2319
RightArm  -21.5817 9.0529 46.7754
RightForeArm  72.4554 -5.51574 5.37699
RightHand  -0.0541329 -5.10792 -17.1284
LeftUpLeg  -11.2951 -9.93269 12.7482
LeftLeg  26.4816 -3.95782 -1.8061
LeftFoot  -19.5157 -0.590975 -9.88515
LeftToes  -1.9349e-011 5.45182e-011 1.33515e-010
63
root  -41.9753 37.8758 54.2368 -174.054 -9.81207 -178.202
RightUpLeg  -23.9658 -9.4024 -10.8023
RightLeg  10.9757 -10.0553 -1.55862
RightFoot  -0.954077 -0.759246 8.26699
RightToes  6.35937e-011 1.2921e-014 -6.02303e-014
Spine  7.11535 -2.32879 -0.362869
Spine1  3.66039 -2.70533 1.21048
HEad  -4.96429 -15.1404 5.56412
LeftShoulder1  2.47218 -6.3482 -19.3671
LeftArm  -2.34048 -8.02011 -54.546
LeftForeArm  41.3721 -0.970877 -12.1804
LeftHand  -0.0202651 4.81947 -0.280961
RightShoulder  1.98853 3.05632 25.2152
RightArm  -21.8494 9.04176 47.3686
RightForeArm  73.1721 -5.45336 5.17256
RightHand  -0.0185915 -5.35172 -17.1887
LeftUpLeg  -12.5547 -8.93745 11.2854
LeftLeg  27.842 -4.14483 -2.03214
LeftFoot  -20.1567 -0.484688 -7.84476
LeftToes  -1.9349e-011 5.45182e-011 1.33515e-010
64
root  -42.6956 37.8788 54.8842 -173.997 -9.47525 -178.297
RightUpLeg  -22.7431 -9.22434 -11.7785
RightLeg  7.65647 -10.7168 -1.24816
RightFoot  -5.11631 -0.474578 8.07242
RightToes  6.35937e-011 1.2921e-014 -6.02303e-014
Spine  6.73126 -2.37047 -0.683246
Spine1  3.47697 -2.54414 0.314229
HEad  -4.40155 -15.3113 5.79357
LeftShoulder1  2.4106 -6.11861 -19.3351
LeftArm  -2.28251 -7.37962 -53.8417
LeftForeArm  41.9074 0.416207 -12.3322
LeftHand  -0.0230085 4.99169 -0.409283
RightShoulder  2.00541 3.10805 25.2282
RightArm  -21.4064 8.55591 47.9687
RightForeArm  73.6315 -5.47822 5.43756
RightHand  -0.0129376 -5.39187 -16.9705
LeftUpLeg  -13.5271 -8.21521 9.77603
LeftLeg  28.2147 -3.75449 -1.83967
LeftFoot  -20.4036 -0.349477 -5.94885
LeftToes  -1.9349e-011 5.45182e-011 1.33515e-010
